#!OML:ASF F:\VICON\USERDATA\INSTALL\rory3\rory3.ASF
:FULLY-SPECIFIED
:DEGREES
909
root -1.98663 15.0987 15.0066 8.80259 27.1009 52.4033
lowerback -21.4981 -11.9702 2.24996
upperback -13.7431 -15.5822 3.00864
thorax -3.15175 -7.88214 -0.804867
lowerneck -3.29047 -9.69808 -13.9822
upperneck 43.0961 -10.7874 -8.91402
head 16.6146 -7.86242 -3.12772
rclavicle -7.15625e-014 3.49861e-014
rhumerus -15.2685 -23.6125 24.1287
rradius 39.2173
rwrist -11.0587
rhand -21.0728 -52.2155
rfingers 7.12502
rthumb -174.696 817.871
lclavicle -7.15625e-014 3.49861e-014
lhumerus -4.60889 16.0083 9.43523
lradius 24.3031
lwrist 40.8142
lhand -34.7139 -12.512
lfingers 7.12502
lthumb -7.86868 17.3215
rfemur -37.8141 3.27256 30.3132
rtibia 54.2676
rfoot -1.64727 -22.1541
rtoes 25.8539
lfemur 6.60524 30.6105 -8.1098
ltibia 89.1662
lfoot -9.32962 7.12462
ltoes 7.94449
910
root -2.01452 15.1052 15.0796 9.00698 27.1997 52.6278
lowerback -21.5428 -12.0648 2.02102
upperback -13.7505 -15.6656 3.04694
thorax -3.06886 -7.90814 -0.683194
lowerneck -3.53904 -9.69003 -13.9206
upperneck 43.204 -10.7123 -8.98327
head 16.7205 -7.83075 -3.18794
rclavicle -4.92986e-014 -2.8625e-014
rhumerus -15.0463 -23.5394 24.5255
rradius 39.2471
rwrist -11.4451
rhand -20.1396 -52.4346
rfingers 7.12502
rthumb -173.795 817.676
lclavicle -4.92986e-014 -2.8625e-014
lhumerus -4.73542 16.6646 9.25078
lradius 24.0851
lwrist 39.8371
lhand -33.8374 -12.5455
lfingers 7.12502
lthumb -7.02262 17.318
rfemur -37.8368 3.4917 30.2346
rtibia 54.1085
rfoot -0.428125 -21.7245
rtoes 23.126
lfemur 6.85433 30.5255 -7.92466
ltibia 88.9674
lfoot -7.73058 6.91782
ltoes 7.88125
911
root -2.02082 15.0867 15.1351 9.16516 27.3917 52.8138
lowerback -21.4989 -12.1744 1.88068
upperback -13.7987 -15.7809 3.04351
thorax -3.11184 -7.95982 -0.624242
lowerneck -3.43447 -9.62726 -13.7986
upperneck 43.2095 -10.6292 -9.04741
head 16.6774 -7.78568 -3.20978
rclavicle -2.51264e-013 -3.18055e-015
rhumerus -14.8456 -23.7416 24.7854
rradius 39.3478
rwrist -11.6469
rhand -19.8938 -52.5033
rfingers 7.12502
rthumb -173.558 817.615
lclavicle -2.51264e-013 -3.18055e-015
lhumerus -4.67609 18.4698 9.15352
lradius 23.5282
lwrist 37.3678
lhand -32.8455 -12.6206
lfingers 7.12502
lthumb -6.06501 17.2726
rfemur -37.5727 3.57582 30.2786
rtibia 53.9952
rfoot -0.495224 -21.8303
rtoes 23.4849
lfemur 7.09587 30.3618 -7.65146
ltibia 88.9302
lfoot -6.27162 6.58378
ltoes 7.14623
912
root -2.0233 15.0692 15.1933 9.42819 27.6242 53.0986
lowerback -21.6184 -12.2517 1.74153
upperback -13.8364 -15.8552 2.95746
thorax -3.08919 -7.9947 -0.675608
lowerneck -3.45069 -9.67534 -13.8599
upperneck 43.2981 -10.6948 -9.05375
head 16.7391 -7.82263 -3.22598
rclavicle -1.20861e-013 -7.31528e-014
rhumerus -14.7164 -24.252 25.0049
rradius 39.3385
rwrist -11.6465
rhand -20.8958 -52.3393
rfingers 7.12502
rthumb -174.525 817.751
lclavicle -1.20861e-013 -7.31528e-014
lhumerus -4.73738 18.6351 8.98011
lradius 23.4842
lwrist 36.8564
lhand -32.54 -12.6062
lfingers 7.12502
lthumb -5.77009 17.2952
rfemur -37.3559 3.51724 30.2335
rtibia 53.9132
rfoot -0.975716 -22.048
rtoes 25.4288
lfemur 7.25717 30.1249 -7.58984
ltibia 88.8633
lfoot -4.89052 6.20433
ltoes 7.28619
913
root -2.02727 15.0619 15.2574 9.65155 27.8404 53.4474
lowerback -21.6965 -12.3129 1.58818
upperback -13.8913 -15.9054 2.86608
thorax -3.10303 -8.01747 -0.71033
lowerneck -3.4348 -9.66539 -13.976
upperneck 43.3345 -10.6588 -9.06351
head 16.77 -7.82708 -3.21265
rclavicle 3.18055e-015 -4.13472e-014
rhumerus -14.4938 -24.548 25.3042
rradius 39.2047
rwrist -11.765
rhand -20.9894 -51.9673
rfingers 7.12502
rthumb -174.615 818.121
lclavicle 3.18055e-015 -4.13472e-014
lhumerus -5.16577 16.5835 8.64198
lradius 24.0757
lwrist 38.965
lhand -33.3758 -12.0051
lfingers 7.12502
lthumb -6.57703 17.8727
rfemur -37.1418 3.37497 30.0834
rtibia 53.8752
rfoot -1.19586 -22.0277
rtoes 26.5374
lfemur 7.58727 29.9724 -7.49117
ltibia 88.7588
lfoot -3.50634 5.81885
ltoes 7.02112
914
root -2.03434 15.0635 15.3168 9.63414 28.0445 53.4332
lowerback -21.6368 -12.3137 1.79375
upperback -13.8904 -15.9381 2.8603
thorax -3.18913 -8.04655 -0.803729
lowerneck -3.33637 -9.61138 -14.0107
upperneck 43.234 -10.5722 -9.07081
head 16.6933 -7.79586 -3.17784
rclavicle 4.77083e-015 1.59028e-014
rhumerus -14.164 -25.2216 25.5821
rradius 38.9488
rwrist -11.5879
rhand -20.1775 -51.8188
rfingers 7.12502
rthumb -173.832 818.291
lclavicle 4.77083e-015 1.59028e-014
lhumerus -5.49825 15.4939 8.35356
lradius 24.3528
lwrist 39.9877
lhand -33.7982 -11.3907
lfingers 7.12502
lthumb -6.98476 18.4741
rfemur -36.8732 3.28749 30.2281
rtibia 53.8404
rfoot -1.45943 -21.9991
rtoes 26.9881
lfemur 8.09242 29.9625 -6.88192
ltibia 88.6664
lfoot -2.06817 5.26128
ltoes 6.12773
915
root -2.04071 15.0491 15.3739 9.68374 28.203 53.3667
lowerback -21.6561 -12.3089 1.8971
upperback -13.8532 -15.9478 2.88231
thorax -3.15929 -8.05424 -0.841481
lowerneck -3.3383 -9.67929 -14.0763
upperneck 43.1844 -10.6598 -9.07187
head 16.6757 -7.83917 -3.17745
rclavicle 1.03368e-013 9.54166e-015
rhumerus -13.9789 -25.8877 25.8606
rradius 38.8042
rwrist -11.5409
rhand -20.0978 -52.2616
rfingers 7.12502
rthumb -173.755 817.85
lclavicle 1.03368e-013 9.54166e-015
lhumerus -5.32772 16.9361 8.39296
lradius 23.9736
lwrist 38.6109
lhand -33.271 -11.5316
lfingers 7.12502
lthumb -6.47581 18.3494
rfemur -36.7065 3.3658 30.4576
rtibia 53.8358
rfoot -1.70722 -22.0832
rtoes 26.9885
lfemur 8.3002 29.9672 -6.33928
ltibia 88.7045
lfoot -0.704339 4.73964
ltoes 6.59434
